<?xml version="1.0" encoding="UTF-8" standalone="no"?>
<svg
   xmlns:dc="http://purl.org/dc/elements/1.1/"
   xmlns:cc="http://creativecommons.org/ns#"
   xmlns:rdf="http://www.w3.org/1999/02/22-rdf-syntax-ns#"
   xmlns:svg="http://www.w3.org/2000/svg"
   xmlns="http://www.w3.org/2000/svg"
   xmlns:sodipodi="http://sodipodi.sourceforge.net/DTD/sodipodi-0.dtd"
   xmlns:inkscape="http://www.inkscape.org/namespaces/inkscape"
   version="1.1"
   id="svg32"
   width="2794.6667"
   height="2794.6667"
   viewBox="0 0 2794.6667 2794.6667"
   sodipodi:docname="om_transparent.svg"
   inkscape:version="1.0.2-2 (e86c870879, 2021-01-15)">
  <metadata
     id="metadata38">
    <rdf:RDF>
      <cc:Work
         rdf:about="">
        <dc:format>image/svg+xml</dc:format>
        <dc:type
           rdf:resource="http://purl.org/dc/dcmitype/StillImage" />
        <dc:title></dc:title>
      </cc:Work>
    </rdf:RDF>
  </metadata>
  <defs
     id="defs36" />
  <sodipodi:namedview
     pagecolor="#ffffff"
     bordercolor="#666666"
     borderopacity="1"
     objecttolerance="10"
     gridtolerance="10"
     guidetolerance="10"
     inkscape:pageopacity="0"
     inkscape:pageshadow="2"
     inkscape:window-width="1928"
     inkscape:window-height="1082"
     id="namedview34"
     showgrid="false"
     inkscape:zoom="0.36068701"
     inkscape:cx="1508.2328"
     inkscape:cy="1278.5201"
     inkscape:window-x="79"
     inkscape:window-y="0"
     inkscape:window-maximized="0"
     inkscape:current-layer="g40" />
  <g
     inkscape:groupmode="layer"
     inkscape:label="Image"
     id="g40">
    <path
       style="fill:#ffffff;stroke-width:1.33333"
       d="m 683.76229,2290.5345 c -0.003,-7.15 -0.57209,-92.8 -1.26533,-190.3333 -0.69324,-97.5334 -1.64166,-243.9334 -2.10759,-325.3334 -0.46592,-81.4 -1.00649,-148.16 -1.20127,-148.3554 -0.19476,-0.1956 -31.49414,14.3997 -69.55418,32.4338 -38.06003,18.0342 -83.90006,39.7434 -101.86672,48.2427 -17.96667,8.4993 -48.71667,23.0996 -68.33334,32.4452 l -35.66667,16.992 v -85.2543 c 0,-80.025 0.14312,-85.2996 2.33334,-85.9913 3.20166,-1.0111 63.92816,-29.7961 99.66667,-47.2429 28.55178,-13.9384 212.00696,-101.2922 225.33336,-107.2944 3.6666,-1.6515 24.0666,-11.2468 45.3333,-21.3231 21.2667,-10.0763 44.9667,-21.3035 52.6667,-24.9495 12.9227,-6.1189 14.2565,-6.4872 17.3333,-4.7846 l 3.3333,1.8445 0.8918,27.952 c 0.4905,15.3736 1.0975,164.2589 1.3488,330.8564 0.2514,166.5973 0.816,303.2633 1.2548,303.702 0.8645,0.8645 12.349,-4.4883 197.17134,-91.9013 67.8333,-32.0823 134.4333,-63.5679 148,-69.968 13.5666,-6.4002 59.2852,-28.0031 101.5967,-48.0064 l 76.93,-36.37 0.4033,-250.847 c 0.2218,-137.9658 0.3105,-251.0399 0.197,-251.2756 -0.1134,-0.2356 -93.0717,43.4929 -206.5739,97.1748 -154.6474,73.1418 -206.87804,97.2812 -208.40414,96.3187 -1.12,-0.7065 -2.5389,-3.2237 -3.1531,-5.5939 -0.6141,-2.3701 -0.9248,-38.9208 -0.6902,-81.2236 0.4971,-89.6772 -0.1228,-85.2692 12.78,-90.8736 4.1695,-1.8111 53.48104,-24.9924 109.58094,-51.514 l 102,-48.2211 0.3386,-166.964 c 0.2705,-133.43421 0,-166.82382 -1.3334,-166.26552 -0.9195,0.38422 -67.0718,31.70364 -147.0051,69.5987 -125.00674,59.26362 -248.89144,117.83412 -331.67144,156.80832 -12.2859,5.7844 -22.6359,10.5171 -22.99999,10.5171 -0.36408,0 -0.66197,-41.7 -0.66197,-92.6667 0,-61.63558 0.45196,-92.66674 1.34964,-92.66674 0.7423,0 29.39232,-13.26072 63.66662,-29.46826 594.69064,-281.21533 583.24274,-275.86507 590.26314,-275.86507 2.0188,0 3.9567,1.16108 5.007,3 1.3728,2.40329 1.8462,53.26424 2.3803,255.70943 l 0.6666,252.70954 80,-37.6296 c 44.0001,-20.6963 87.5943,-41.2681 96.8763,-45.7151 9.7584,-4.6754 17.7719,-7.7418 19,-7.2705 2.1358,0.8196 2.678,144.999 2.7724,737.1921 l 0.019,113.3292 -12,6.3845 c -14.6433,7.7911 -45.9585,23.058 -64,31.2016 -17.0816,7.7104 -48.7558,22.7163 -111.3334,52.7455 -27.5,13.1964 -70.7,33.7662 -96,45.7106 -25.3,11.9446 -59.8,28.2848 -76.6666,36.3119 -60.6197,28.8496 -210.20794,99.6604 -253.33334,119.9208 -63.3966,29.7839 -103.378,48.662 -177.7071,83.9087 -36.1389,17.1369 -65.98892,31.1581 -66.33336,31.1581 -0.34442,0 -0.62845,-5.85 -0.63114,-13 z m 1049.66961,-907.9959 0.3353,-427.37628 16.6667,-7.65723 c 9.1667,-4.21149 91.9667,-42.15939 184,-84.32865 92.0333,-42.16926 187.1333,-85.80724 211.3333,-96.9733 42.757,-19.72838 155.3878,-71.37144 217.1674,-99.57476 16.7754,-7.65822 35.2254,-16.21576 41,-19.01676 l 10.4993,-5.09272 -0.036,424.8412 -0.036,424.8411 -6.2075,3.1345 c -7.417,3.7453 -74.228,34.9707 -285.7193,133.5364 -86.9,40.4999 -158.45,73.9024 -159,74.228 -0.55,0.3255 -0.992,-39.7936 -0.9821,-89.1536 l 0.017,-89.7453 154.9823,-70.961 154.9821,-70.9609 0.8125,-89.0391 c 0.9331,-102.34 1.4395,-408.37247 0.6748,-408.37247 -0.2814,0 -88.9314,40.47777 -197,89.95059 l -196.4881,89.95078 -0.3359,339.3827 c -0.2785,281.3618 -0.6392,339.3827 -2.1096,339.3827 -0.9754,0 -16.7242,6.9852 -34.9973,15.5227 -18.2732,8.5376 -50.4748,23.473 -71.5592,33.1901 l -38.3355,17.6675 z M 1425.1005,789.32098 V 577.46337 l 19.6667,-9.57824 c 10.8167,-5.26803 39.1667,-18.67655 63,-29.79671 23.8334,-11.12016 47.2334,-22.17892 52,-24.575 7.7275,-3.88443 15.6492,-6.65745 16.2006,-5.67109 0.1106,0.1973 0.5602,58.6837 1,129.96978 l 0.7994,129.61107 160,-72.68294 c 325.9347,-148.06183 336.3002,-152.64738 342.7019,-151.60853 l 4.6315,0.75159 v 79.8674 c 0,74.85859 -0.1463,79.91952 -2.3334,80.69872 -1.2833,0.45724 -50.6333,22.70768 -109.6666,49.44542 -59.0334,26.73774 -138.2334,62.58558 -176,79.66188 -37.7667,17.07629 -135.5667,61.47649 -217.3334,98.66712 -81.7666,37.19058 -150.0167,67.91976 -151.6667,68.28706 l -3,0.6677 z m 229.6667,-148.41367 -3,-2.81013 0.02,-163.61473 c 0.013,-89.9881 0.4612,-164.23719 1,-164.99799 0.5388,-0.7608 3.3796,-2.34603 6.313,-3.52272 2.9333,-1.17668 31.4333,-14.26756 63.3333,-29.09084 80.2549,-37.29279 74.6801,-34.85491 75.3969,-32.97162 0.3423,0.89931 0.468,76.91212 0.2794,168.91735 l -0.3426,167.28226 -3.3333,1.69817 c -19.7952,10.08476 -129.5472,60.51056 -133.3333,61.26031 -2.2294,0.44146 -4.327,-0.27066 -6.3334,-2.15006 z"
       id="path44" />
  </g>
</svg>
